<svg width="45" height="33" viewBox="0 0 45 33" fill="none" xmlns="http://www.w3.org/2000/svg">
<g id="Group">
<path id="Vector" d="M3.79689 33H10.7969V15.9999L0.796875 8.49988V30C0.796875 31.66 2.14188 33 3.79689 33Z" fill="#ABB0BC"/>
<path id="Vector_2" d="M34.7969 33H41.7969C43.4571 33 44.7969 31.655 44.7969 30V8.49988L34.7969 15.9999" fill="#ABB0BC"/>
<path id="Vector_3" d="M34.7969 2.99986V15.9999L44.7969 8.4999V4.49988C44.7969 0.789848 40.562 -1.32516 37.5969 0.899847" fill="#CBD5E1"/>
<path id="Vector_4" d="M10.7969 15.9999V2.99988L22.797 11.9999L34.7969 2.99988V15.9999L22.797 25" fill="#ABB0BC"/>
<path id="Vector_5" d="M0.796875 4.49988V8.4999L10.7969 15.9999V2.99986L7.99692 0.899847C5.0269 -1.32516 0.796875 0.789848 0.796875 4.49988Z" fill="#CBD5E1"/>
</g>
</svg>
