<svg width="35" height="34" viewBox="0 0 35 34" fill="none" xmlns="http://www.w3.org/2000/svg">
<path id="Vector" fill-rule="evenodd" clip-rule="evenodd" d="M10.7882 0.102C12.6011 0.0185454 13.1791 0 17.7969 0C22.4147 0 22.9927 0.0200909 24.804 0.102C26.6152 0.183909 27.8516 0.472909 28.9334 0.891727C30.0662 1.31982 31.094 1.989 31.944 2.85445C32.8094 3.70291 33.4771 4.72909 33.9036 5.86345C34.324 6.94527 34.6114 8.18164 34.6949 9.98982C34.7783 11.8057 34.7969 12.3837 34.7969 17C34.7969 21.6178 34.7768 22.1958 34.6949 24.0086C34.613 25.8168 34.324 27.0532 33.9036 28.135C33.477 29.2695 32.8083 30.2974 31.944 31.1471C31.094 32.0125 30.0662 32.6802 28.9334 33.1067C27.8516 33.5271 26.6152 33.8145 24.8071 33.898C22.9927 33.9815 22.4147 34 17.7969 34C13.1791 34 12.6011 33.9799 10.7882 33.898C8.98006 33.8161 7.74369 33.5271 6.66187 33.1067C5.52739 32.6801 4.49951 32.0114 3.64978 31.1471C2.78492 30.2981 2.11563 29.2707 1.6886 28.1365C1.26978 27.0547 0.98233 25.8184 0.898875 24.0102C0.81542 22.1943 0.796875 21.6163 0.796875 17C0.796875 12.3822 0.816966 11.8042 0.898875 9.99291C0.980784 8.18164 1.26978 6.94527 1.6886 5.86345C2.11626 4.72922 2.78606 3.70185 3.65133 2.85291C4.49985 1.98823 5.5267 1.31896 6.66033 0.891727C7.74215 0.472909 8.97851 0.185455 10.7867 0.102H10.7882ZM24.6664 3.162C22.8737 3.08009 22.3359 3.06309 17.7969 3.06309C13.2579 3.06309 12.7201 3.08009 10.9273 3.162C9.26906 3.23773 8.3696 3.51436 7.76997 3.74773C6.97715 4.05682 6.40997 4.42309 5.81497 5.01809C5.25094 5.56681 4.81688 6.2348 4.5446 6.97309C4.31124 7.57273 4.0346 8.47218 3.95887 10.1305C3.87697 11.9232 3.85997 12.461 3.85997 17C3.85997 21.539 3.87697 22.0768 3.95887 23.8695C4.0346 25.5278 4.31124 26.4273 4.5446 27.0269C4.8166 27.7641 5.25087 28.4333 5.81497 28.9819C6.3636 29.546 7.03278 29.9803 7.76997 30.2523C8.3696 30.4856 9.26906 30.7623 10.9273 30.838C12.7201 30.9199 13.2563 30.9369 17.7969 30.9369C22.3374 30.9369 22.8737 30.9199 24.6664 30.838C26.3247 30.7623 27.2241 30.4856 27.8238 30.2523C28.6166 29.9432 29.1838 29.5769 29.7788 28.9819C30.3429 28.4333 30.7771 27.7641 31.0491 27.0269C31.2825 26.4273 31.5591 25.5278 31.6349 23.8695C31.7168 22.0768 31.7338 21.539 31.7338 17C31.7338 12.461 31.7168 11.9232 31.6349 10.1305C31.5591 8.47218 31.2825 7.57273 31.0491 6.97309C30.7401 6.18027 30.3738 5.61309 29.7788 5.01809C29.23 4.45411 28.5621 4.02005 27.8238 3.74773C27.2241 3.51436 26.3247 3.23773 24.6664 3.162ZM15.6255 22.2406C16.8382 22.7454 18.1885 22.8136 19.4458 22.4334C20.7031 22.0532 21.7894 21.2483 22.5192 20.1562C23.249 19.0641 23.577 17.7524 23.4471 16.4453C23.3173 15.1383 22.7377 13.9168 21.8073 12.9895C21.2142 12.3968 20.4971 11.943 19.7076 11.6607C18.918 11.3784 18.0757 11.2746 17.2413 11.357C16.4068 11.4393 15.601 11.7055 14.8818 12.1367C14.1627 12.5678 13.548 13.153 13.0822 13.8501C12.6163 14.5473 12.3108 15.3391 12.1877 16.1685C12.0645 16.9979 12.1268 17.8443 12.3701 18.6467C12.6133 19.4491 13.0314 20.1877 13.5944 20.8091C14.1573 21.4306 14.851 21.9195 15.6255 22.2406ZM11.6181 10.8213C12.4295 10.0099 13.3928 9.36623 14.453 8.9271C15.5131 8.48798 16.6494 8.26196 17.7969 8.26196C18.9444 8.26196 20.0806 8.48798 21.1408 8.9271C22.2009 9.36623 23.1642 10.0099 23.9756 10.8213C24.787 11.6327 25.4306 12.5959 25.8698 13.6561C26.3089 14.7162 26.5349 15.8525 26.5349 17C26.5349 18.1475 26.3089 19.2838 25.8698 20.3439C25.4306 21.4041 24.787 22.3673 23.9756 23.1787C22.3369 24.8174 20.1143 25.738 17.7969 25.738C15.4794 25.738 13.2568 24.8174 11.6181 23.1787C9.97945 21.54 9.05884 19.3175 9.05884 17C9.05884 14.6825 9.97945 12.46 11.6181 10.8213ZM28.4729 9.56327C28.6739 9.3736 28.8349 9.14551 28.9463 8.8925C29.0576 8.6395 29.117 8.36673 29.1211 8.09035C29.1251 7.81396 29.0736 7.53957 28.9697 7.28343C28.8658 7.02729 28.7115 6.79461 28.5161 6.59915C28.3206 6.4037 28.0879 6.24944 27.8318 6.14553C27.5757 6.04161 27.3013 5.99014 27.0249 5.99417C26.7485 5.9982 26.4757 6.05765 26.2227 6.16898C25.9697 6.28032 25.7416 6.44129 25.552 6.64236C25.1831 7.03341 24.9811 7.55282 24.989 8.09035C24.9968 8.62787 25.2138 9.14118 25.5939 9.5213C25.9741 9.90143 26.4874 10.1184 27.0249 10.1263C27.5624 10.1341 28.0818 9.93216 28.4729 9.56327Z" fill="#CBD5E1"/>
</svg>
