<svg width="36" height="35" viewBox="0 0 36 35" fill="none" xmlns="http://www.w3.org/2000/svg">
<g id="Layer 2">
<g id="Layer 1">
<path id="Vector" d="M7.78581 35H1.74979e-06V11.6426H7.78581V35ZM3.89291 8.5551C3.12296 8.5551 2.37031 8.32678 1.73012 7.89902C1.08994 7.47127 0.590976 6.86328 0.296331 6.15194C0.00168672 5.44061 -0.0754057 4.65787 0.0748028 3.90273C0.225011 3.14758 0.595774 2.45393 1.14021 1.90949C1.68464 1.36506 2.37829 0.994299 3.13344 0.84409C3.88859 0.693881 4.67132 0.770974 5.38266 1.06562C6.09399 1.36026 6.70198 1.85923 7.12974 2.49941C7.55749 3.1396 7.78581 3.89225 7.78581 4.66219C7.78581 5.69466 7.37567 6.68483 6.6456 7.41489C5.91554 8.14495 4.92537 8.5551 3.89291 8.5551ZM35.7968 35H28.3242V23.6345C28.3242 20.9497 28.3242 17.4596 24.4313 17.4596C20.5384 17.4596 19.9567 20.4128 19.9567 23.4555V35H12.4394V11.6426H19.6435V14.8195C20.3892 13.5974 21.454 12.6016 22.7234 11.9393C23.9927 11.2771 25.4186 10.9734 26.8476 11.0609C34.4544 11.0609 35.7968 15.8934 35.7968 22.2026V35Z" fill="#CBD5E1"/>
</g>
</g>
</svg>
