<svg width="43" height="34" viewBox="0 0 43 34" fill="none" xmlns="http://www.w3.org/2000/svg">
<path id="Vector" d="M42.7969 4.03302C41.2523 4.71455 39.5931 5.17504 37.8488 5.38318C39.6486 4.31078 40.9951 2.62293 41.6371 0.634592C39.9462 1.63476 38.0955 2.33877 36.1656 2.71601C34.8678 1.33613 33.1488 0.421524 31.2755 0.114188C29.4022 -0.193148 27.4794 0.123983 25.8057 1.01634C24.1319 1.90871 22.8009 3.32637 22.0191 5.04924C21.2374 6.77211 21.0487 8.70379 21.4824 10.5444C18.0561 10.3731 14.7043 9.48626 11.6445 7.9415C8.58465 6.39675 5.88519 4.22857 3.7213 1.57768C2.98141 2.84864 2.55597 4.32221 2.55597 5.89157C2.55514 7.30435 2.90452 8.69549 3.5731 9.94156C4.24168 11.1876 5.20878 12.2501 6.38861 13.0347C5.02032 12.9914 3.68222 12.6232 2.48568 11.9608V12.0714C2.48554 14.0528 3.17384 15.9733 4.43379 17.507C5.69373 19.0407 7.44772 20.093 9.39813 20.4855C8.12881 20.8276 6.79803 20.8779 5.50629 20.6328C6.05658 22.3378 7.1285 23.8287 8.57198 24.8968C10.0155 25.965 11.7582 26.5569 13.5563 26.5898C10.504 28.9759 6.7343 30.2702 2.85378 30.2645C2.16638 30.2647 1.47957 30.2247 0.796875 30.1447C4.73583 32.6667 9.32107 34.0052 14.004 34C29.8562 34 38.5221 20.9257 38.5221 9.58655C38.5221 9.21816 38.5129 8.84608 38.4963 8.47769C40.1819 7.26378 41.6369 5.76059 42.7932 4.03855L42.7969 4.03302Z" fill="#CBD5E1"/>
</svg>
